# xmcd
#
# Track frame offsets: 
#        150
#        25307
#        46527
#        65317
#        83850
#        103732
#        121017
#        137575
#        157380
#        175378
#
# Disc length: 2551 seconds
#
# Revision: 0
# Processed by: cddbd v1.5.2PL0 Copyright (c) Steve Scherf et al.
# Submitted via: ExactAudioCopy v0.99pb4
#
DISCID=7e09f50a
DTITLE=Declaração De Amor Vol 2 - Daniel and Samuel
DYEAR=2001
DGENRE=Gospel
TTITLE0=Declaração De Amor
TTITLE1=É Bom Te Ter Aqui
TTITLE2=O Tempo Todo Com Você
TTITLE3=Lindo Presente
TTITLE4=Você E Eu
TTITLE5=Somos Um
TTITLE6=Nosso Amor
TTITLE7=Sentimentos
TTITLE8=Felicidade
TTITLE9=Vida Interessante
EXTD=
EXTT0=
EXTT1=
EXTT2=
EXTT3=
EXTT4=
EXTT5=
EXTT6=
EXTT7=
EXTT8=
EXTT9=
PLAYORDER=
